<?xml version="1.0" encoding="utf-8"?>
<!-- Generator: Adobe Illustrator 19.0.0, SVG Export Plug-In . SVG Version: 6.00 Build 0)  -->
<svg version="1.1" id="Ebene_1" xmlns="http://www.w3.org/2000/svg" xmlns:xlink="http://www.w3.org/1999/xlink" x="0px" y="0px"
	 viewBox="-43 44.3 195.2 195.2" width="195.2" height="195.2" style="enable-background:new -43 44.3 195.2 195.2;" xml:space="preserve">
<style type="text/css">
	.st0{fill:#8C8C8C;}
</style>
<g>
	<g>
		<g>
			<path class="st0" d="M70.4,176.2c-0.8,0-1.6-0.3-2.1-0.9l-20-20c-1.2-1.2-1.2-3.1,0-4.3c1.2-1.2,3.1-1.2,4.3,0l18,18
				c12.8-11.5,79.5-73.9,62.8-112c-31.3,31.3-89.4,89.6-89.4,89.6c-1.2,1.2-3.1,1.2-4.3,0c-1.2-1.2-1.2-3.1,0-4.3
				c0,0,62-62.1,92.4-92.6c0.7-0.7,1.6-1,2.5-0.9c0.9,0.1,1.7,0.6,2.2,1.4C164.2,96,76.1,172.3,72.4,175.5
				C71.8,176,71.1,176.2,70.4,176.2z"/>
		</g>
		<g>
			<path class="st0" d="M-5,237.3c-1.6,0-3.2-0.3-4.7-0.9c-11.4-4.3-16.8-22.9-17.4-25.1c-0.3-1,0-2.2,0.8-2.9l65.8-66
				c1.2-1.2,3.1-1.2,4.3,0c1.2,1.2,1.2,3.1,0,4.3l-64.6,64.7c1.9,5.8,6.6,16.9,13.1,19.3c2.5,1,5.2,0.5,8.1-1.5
				c16.6-11,53.1-70.8,53.4-71.4c0.9-1.4,2.7-1.9,4.2-1c1.4,0.9,1.9,2.7,1,4.2c-1.5,2.5-37.5,61.7-55.3,73.4
				C0.9,236.3-2.1,237.3-5,237.3z"/>
		</g>
		<g>
			<path class="st0" d="M-3.5,217.6C-3.5,217.6-3.5,217.6-3.5,217.6c-1.2,0-2.3-0.5-3.2-1.3c-1.7-1.7-1.8-4.6,0-6.3
				c1.7-1.7,4.7-1.7,6.4,0c0.8,0.8,1.3,2,1.3,3.2c0,1.2-0.5,2.3-1.3,3.2C-1.1,217.2-2.3,217.6-3.5,217.6z M-3.5,211.6
				c-0.4,0-0.8,0.2-1.1,0.5c-0.3,0.3-0.5,0.7-0.5,1.1c0,0.4,0.2,0.8,0.5,1.1c0.6,0.6,1.6,0.6,2.2,0c0.6-0.6,0.6-1.6,0-2.2
				C-2.6,211.7-3.1,211.6-3.5,211.6L-3.5,211.6z"/>
		</g>
	</g>
	<g>
		<g>
			<path class="st0" d="M132.3,234.4c-5,0-10.2-1.5-13.9-5.2c0,0-0.1-0.1-0.1-0.1l-37.9-43.2c-1.1-1.3-1-3.2,0.3-4.3
				c1.3-1.1,3.2-1,4.3,0.3l37.8,43.1c5.3,5.2,15.4,3.4,17.8,1c2.4-2.4,4.2-12.5-1-17.8L85,159.8c-1.3-1.1-1.4-3-0.3-4.3
				c1.1-1.3,3-1.4,4.3-0.3l54.6,48.5c0,0,0.1,0.1,0.1,0.1c7.5,7.5,6,21.5,1.1,26.4C142.3,232.8,137.4,234.4,132.3,234.4z"/>
		</g>
		<g>
			<path class="st0" d="M15,137.6c-0.7,0-1.3,0-2-0.1c-5.3-0.5-10.5-3-14.5-7.1c-0.1-0.1-0.1-0.1-0.2-0.2l-36.5-42.4
				c-1.1-1.3-1-3.2,0.3-4.3c1.3-1.1,3.2-1,4.3,0.3l36.5,42.3c3.1,3,6.9,4.9,10.8,5.3c3.7,0.4,7-0.7,9.2-3l19.8-19.9
				c2.3-2.3,3.3-5.6,3-9.3c-0.4-3.9-2.3-7.7-5.3-10.8L-2.3,51.1c-1.3-1.1-1.4-3-0.3-4.3c1.1-1.3,3-1.4,4.3-0.3l42.7,37.6
				c0,0,0.1,0.1,0.1,0.1c4.1,4.1,6.6,9.2,7.1,14.5c0.5,5.5-1.1,10.5-4.7,14.1l-19.8,19.9C24,135.9,19.8,137.6,15,137.6z"/>
		</g>
		<g>
			<path class="st0" d="M33.1,107.6c-0.8,0-1.5-0.3-2.1-0.9l-44.6-44.5c-1.2-1.2-1.2-3.1,0-4.3c1.2-1.2,3.1-1.2,4.3,0l44.6,44.5
				c1.2,1.2,1.2,3.1,0,4.3C34.6,107.3,33.8,107.6,33.1,107.6z"/>
		</g>
		<g>
			<path class="st0" d="M19.7,121c-0.8,0-1.5-0.3-2.1-0.9l-44.6-44.5c-1.2-1.2-1.2-3.1,0-4.3c1.2-1.2,3.1-1.2,4.3,0l44.6,44.5
				c1.2,1.2,1.2,3.1,0,4.3C21.2,120.7,20.5,121,19.7,121z"/>
		</g>
		<g>
			<path class="st0" d="M50.2,139c-0.8,0-1.5-0.3-2.1-0.9l-15.3-15.3c-1.2-1.2-1.2-3.1,0-4.3c1.2-1.2,3.1-1.2,4.3,0l15.3,15.3
				c1.2,1.2,1.2,3.1,0,4.3C51.8,138.7,51,139,50.2,139z"/>
		</g>
	</g>
</g>
</svg>
